{
  "accessors": [
    {
      "bufferView": 2,
      "componentType": 5126,
      "count": 65532,
      "max": [
        11286.5595703125,
        2640,
        -8247.84765625
      ],
      "min": [
        -11286.5595703125,
        73.5,
        -11674.537109375
      ],
      "type": "VEC3"
    },
    {
      "bufferView": 2,
      "byteOffset": 786384,
      "componentType": 5126,
      "count": 65532,
      "max": [
        0.83384126424789429,
        1,
        0.8908994197845459
      ],
      "min": [
        -0.81467890739440918,
        0.37399396300315857,
        -0.90410619974136353
      ],
      "type": "VEC3"
    },
    {
      "bufferView": 3,
      "componentType": 5126,
      "count": 65532,
      "max": [
        1,
        0.90326333045959473,
        0.10854821652173996,
        -1
      ],
      "min": [
        0.42908632755279541,
        -0.84349679946899414,
        -0.071208491921424866,
        -1
      ],
      "type": "VEC4"
    },
    {
      "bufferView": 3,
      "byteOffset": 1048512,
      "componentType": 5126,
      "count": 65532,
      "max": [
        1,
        1,
        1,
        0
      ],
      "min": [
        1,
        1,
        1,
        0
      ],
      "type": "VEC4"
    },
    {
      "bufferView": 1,
      "componentType": 5126,
      "count": 65532,
      "max": [
        1,
        0.14675910770893097
      ],
      "min": [
        0,
        0
      ],
      "type": "VEC2"
    },
    {
      "bufferView": 1,
      "byteOffset": 524256,
      "componentType": 5126,
      "count": 65532,
      "max": [
        1,
        0.14675910770893097
      ],
      "min": [
        0,
        0
      ],
      "type": "VEC2"
    },
    {
      "bufferView": 0,
      "componentType": 5125,
      "count": 388275,
      "max": [
        65531
      ],
      "min": [
        0
      ],
      "type": "SCALAR"
    },
    {
      "bufferView": 2,
      "byteOffset": 1572768,
      "componentType": 5126,
      "count": 65532,
      "max": [
        11286.5595703125,
        2797.5,
        -4822.25537109375
      ],
      "min": [
        -11286.5595703125,
        -1.5,
        -8324.83984375
      ],
      "type": "VEC3"
    },
    {
      "bufferView": 2,
      "byteOffset": 2359152,
      "componentType": 5126,
      "count": 65532,
      "max": [
        0.83834540843963623,
        1,
        0.86617773771286011
      ],
      "min": [
        -0.88410425186157227,
        0.34874087572097778,
        -0.89059996604919434
      ],
      "type": "VEC3"
    },
    {
      "bufferView": 3,
      "byteOffset": 2097024,
      "componentType": 5126,
      "count": 65532,
      "max": [
        1,
        0.91255760192871094,
        0.11121900379657745,
        -1
      ],
      "min": [
        0.40894830226898193,
        -0.8857731819152832,
        -0.12705092132091522,
        -1
      ],
      "type": "VEC4"
    },
    {
      "bufferView": 3,
      "byteOffset": 3145536,
      "componentType": 5126,
      "count": 65532,
      "max": [
        1,
        1,
        1,
        0
      ],
      "min": [
        1,
        1,
        1,
        0
      ],
      "type": "VEC4"
    },
    {
      "bufferView": 1,
      "byteOffset": 1048512,
      "componentType": 5126,
      "count": 65532,
      "max": [
        1,
        0.29347124695777893
      ],
      "min": [
        0,
        0.143461674451828
      ],
      "type": "VEC2"
    },
    {
      "bufferView": 1,
      "byteOffset": 1572768,
      "componentType": 5126,
      "count": 65532,
      "max": [
        1,
        0.29347124695777893
      ],
      "min": [
        0,
        0.143461674451828
      ],
      "type": "VEC2"
    },
    {
      "bufferView": 0,
      "byteOffset": 1553100,
      "componentType": 5125,
      "count": 388266,
      "max": [
        65531
      ],
      "min": [
        0
      ],
      "type": "SCALAR"
    },
    {
      "bufferView": 2,
      "byteOffset": 3145536,
      "componentType": 5126,
      "count": 65532,
      "max": [
        11286.5595703125,
        2955,
        -1397.7574462890625
      ],
      "min": [
        -11286.5595703125,
        0,
        -4899.22265625
      ],
      "type": "VEC3"
    },
    {
      "bufferView": 2,
      "byteOffset": 3931920,
      "componentType": 5126,
      "count": 65532,
      "max": [
        0.83397668600082397,
        1,
        0.94829010963439941
      ],
      "min": [
        -0.96046078205108643,
        0.23188255727291107,
        -0.94780510663986206
      ],
      "type": "VEC3"
    },
    {
      "bufferView": 3,
      "byteOffset": 4194048,
      "componentType": 5126,
      "count": 65532,
      "max": [
        1,
        0.96449559926986694,
        0.060948129743337631,
        -1
      ],
      "min": [
        0.26409542560577393,
        -0.87153977155685425,
        -0.13658538460731506,
        -1
      ],
      "type": "VEC4"
    },
    {
      "bufferView": 3,
      "byteOffset": 5242560,
      "componentType": 5126,
      "count": 65532,
      "max": [
        1,
        1,
        1,
        0
      ],
      "min": [
        1,
        1,
        1,
        0
      ],
      "type": "VEC4"
    },
    {
      "bufferView": 1,
      "byteOffset": 2097024,
      "componentType": 5126,
      "count": 65532,
      "max": [
        1,
        0.44013649225234985
      ],
      "min": [
        0,
        0.29017487168312073
      ],
      "type": "VEC2"
    },
    {
      "bufferView": 1,
      "byteOffset": 2621280,
      "componentType": 5126,
      "count": 65532,
      "max": [
        1,
        0.44013649225234985
      ],
      "min": [
        0,
        0.29017487168312073
      ],
      "type": "VEC2"
    },
    {
      "bufferView": 0,
      "byteOffset": 3106164,
      "componentType": 5125,
      "count": 388269,
      "max": [
        65531
      ],
      "min": [
        0
      ],
      "type": "SCALAR"
    },
    {
      "bufferView": 2,
      "byteOffset": 4718304,
      "componentType": 5126,
      "count": 65532,
      "max": [
        11286.5595703125,
        2164.5,
        1987.187744140625
      ],
      "min": [
        -11286.5595703125,
        0,
        -4860.7392578125
      ],
      "type": "VEC3"
    },
    {
      "bufferView": 2,
      "byteOffset": 5504688,
      "componentType": 5126,
      "count": 65532,
      "max": [
        0.90558475255966187,
        1,
        0.92766368389129639
      ],
      "min": [
        -0.9306989312171936,
        0.21534815430641174,
        -0.94578927755355835
      ],
      "type": "VEC3"
    },
    {
      "bufferView": 3,
      "byteOffset": 6291072,
      "componentType": 5126,
      "count": 65532,
      "max": [
        1,
        0.93636584281921387,
        0.090073175728321075,
        -1
      ],
      "min": [
        0.35102400183677673,
        -0.93025285005569458,
        -0.077411584556102753,
        -1
      ],
      "type": "VEC4"
    },
    {
      "bufferView": 3,
      "byteOffset": 7339584,
      "componentType": 5126,
      "count": 65532,
      "max": [
        1,
        1,
        1,
        0
      ],
      "min": [
        1,
        1,
        1,
        0
      ],
      "type": "VEC4"
    },
    {
      "bufferView": 1,
      "byteOffset": 3145536,
      "componentType": 5126,
      "count": 65532,
      "max": [
        1,
        0.58510774374008179
      ],
      "min": [
        0,
        0.29182302951812744
      ],
      "type": "VEC2"
    },
    {
      "bufferView": 1,
      "byteOffset": 3669792,
      "componentType": 5126,
      "count": 65532,
      "max": [
        1,
        0.58510774374008179
      ],
      "min": [
        0,
        0.29182302951812744
      ],
      "type": "VEC2"
    },
    {
      "bufferView": 0,
      "byteOffset": 4659240,
      "componentType": 5125,
      "count": 388251,
      "max": [
        65531
      ],
      "min": [
        0
      ],
      "type": "SCALAR"
    },
    {
      "bufferView": 2,
      "byteOffset": 6291072,
      "componentType": 5126,
      "count": 65532,
      "max": [
        11286.5595703125,
        2223,
        5447.958984375
      ],
      "min": [
        -11286.5595703125,
        -3,
        1871.8094482421875
      ],
      "type": "VEC3"
    },
    {
      "bufferView": 2,
      "byteOffset": 7077456,
      "componentType": 5126,
      "count": 65532,
      "max": [
        0.89584612846374512,
        1,
        0.92695069313049316
      ],
      "min": [
        -0.95165753364562988,
        0.24427241086959839,
        -0.95017188787460327
      ],
      "type": "VEC3"
    },
    {
      "bufferView": 3,
      "byteOffset": 8388096,
      "componentType": 5126,
      "count": 65532,
      "max": [
        1,
        0.95509976148605347,
        0.11568479984998703,
        -1
      ],
      "min": [
        0.2941926121711731,
        -0.9557461142539978,
        -0.096509486436843872,
        -1
      ],
      "type": "VEC4"
    },
    {
      "bufferView": 3,
      "byteOffset": 9436608,
      "componentType": 5126,
      "count": 65532,
      "max": [
        1,
        1,
        1,
        0
      ],
      "min": [
        1,
        1,
        1,
        0
      ],
      "type": "VEC4"
    },
    {
      "bufferView": 1,
      "byteOffset": 4194048,
      "componentType": 5126,
      "count": 65532,
      "max": [
        1,
        0.73332655429840088
      ],
      "min": [
        0,
        0.58016633987426758
      ],
      "type": "VEC2"
    },
    {
      "bufferView": 1,
      "byteOffset": 4718304,
      "componentType": 5126,
      "count": 65532,
      "max": [
        1,
        0.73332655429840088
      ],
      "min": [
        0,
        0.58016633987426758
      ],
      "type": "VEC2"
    },
    {
      "bufferView": 0,
      "byteOffset": 6212244,
      "componentType": 5125,
      "count": 388269,
      "max": [
        65531
      ],
      "min": [
        0
      ],
      "type": "SCALAR"
    },
    {
      "bufferView": 2,
      "byteOffset": 7863840,
      "componentType": 5126,
      "count": 65532,
      "max": [
        11286.5595703125,
        1968,
        8830.7451171875
      ],
      "min": [
        -11286.5595703125,
        -6,
        1948.7283935546875
      ],
      "type": "VEC3"
    },
    {
      "bufferView": 2,
      "byteOffset": 8650224,
      "componentType": 5126,
      "count": 65532,
      "max": [
        0.85757869482040405,
        1,
        0.93154895305633545
      ],
      "min": [
        -0.90585148334503174,
        0.31574493646621704,
        -0.91371965408325195
      ],
      "type": "VEC3"
    },
    {
      "bufferView": 3,
      "byteOffset": 10485120,
      "componentType": 5126,
      "count": 65532,
      "max": [
        1,
        0.94184267520904541,
        0.074811987578868866,
        -1
      ],
      "min": [
        0.33605211973190308,
        -0.87710756063461304,
        -0.073091045022010803,
        -1
      ],
      "type": "VEC4"
    },
    {
      "bufferView": 3,
      "byteOffset": 11533632,
      "componentType": 5126,
      "count": 65532,
      "max": [
        1,
        1,
        1,
        0
      ],
      "min": [
        1,
        1,
        1,
        0
      ],
      "type": "VEC4"
    },
    {
      "bufferView": 1,
      "byteOffset": 5242560,
      "componentType": 5126,
      "count": 65532,
      "max": [
        1,
        0.87820529937744141
      ],
      "min": [
        0,
        0.58346062898635864
      ],
      "type": "VEC2"
    },
    {
      "bufferView": 1,
      "byteOffset": 5766816,
      "componentType": 5126,
      "count": 65532,
      "max": [
        1,
        0.87820529937744141
      ],
      "min": [
        0,
        0.58346062898635864
      ],
      "type": "VEC2"
    },
    {
      "bufferView": 0,
      "byteOffset": 7765320,
      "componentType": 5125,
      "count": 388251,
      "max": [
        65531
      ],
      "min": [
        0
      ],
      "type": "SCALAR"
    },
    {
      "bufferView": 2,
      "byteOffset": 9436608,
      "componentType": 5126,
      "count": 55655,
      "max": [
        11286.5595703125,
        1704,
        11674.537109375
      ],
      "min": [
        -11286.5595703125,
        -1.5,
        8638.5703125
      ],
      "type": "VEC3"
    },
    {
      "bufferView": 2,
      "byteOffset": 10104468,
      "componentType": 5126,
      "count": 55655,
      "max": [
        0.87524086236953735,
        1,
        0.8759874701499939
      ],
      "min": [
        -0.86948376893997192,
        0.41158992052078247,
        -0.84719926118850708
      ],
      "type": "VEC3"
    },
    {
      "bufferView": 3,
      "byteOffset": 12582144,
      "componentType": 5126,
      "count": 55655,
      "max": [
        1,
        0.88573521375656128,
        0.06246335431933403,
        -1
      ],
      "min": [
        0.46413376927375793,
        -0.87525355815887451,
        -0.068979613482952118,
        -1
      ],
      "type": "VEC4"
    },
    {
      "bufferView": 3,
      "byteOffset": 13472624,
      "componentType": 5126,
      "count": 55655,
      "max": [
        1,
        1,
        1,
        0
      ],
      "min": [
        1,
        1,
        1,
        0
      ],
      "type": "VEC4"
    },
    {
      "bufferView": 1,
      "byteOffset": 6291072,
      "componentType": 5126,
      "count": 55655,
      "max": [
        1,
        1
      ],
      "min": [
        0,
        0.86997485160827637
      ],
      "type": "VEC2"
    },
    {
      "bufferView": 1,
      "byteOffset": 6736312,
      "componentType": 5126,
      "count": 55655,
      "max": [
        1,
        1
      ],
      "min": [
        0,
        0.86997485160827637
      ],
      "type": "VEC2"
    },
    {
      "bufferView": 0,
      "byteOffset": 9318324,
      "componentType": 5125,
      "count": 329079,
      "max": [
        55654
      ],
      "min": [
        0
      ],
      "type": "SCALAR"
    }
  ],
  "asset": {
    "extras": {
      "author": "Xavier Fischer - Elevation API (https://sketchfab.com/xfischer)",
      "license": "CC-BY-NC-SA-4.0 (http://creativecommons.org/licenses/by-nc-sa/4.0/)",
      "source": "https://sketchfab.com/3d-models/butterfly-valley-turkey-34b311745265484f8cb640ee557078ac",
      "title": "Butterfly Valley, Turkey"
    },
    "generator": "Sketchfab-6.43.0",
    "version": "2.0"
  },
  "bufferViews": [
    {
      "buffer": 0,
      "byteLength": 10634640,
      "byteOffset": 0,
      "name": "floatBufferViews",
      "target": 34963
    },
    {
      "buffer": 0,
      "byteLength": 7181552,
      "byteOffset": 10634640,
      "byteStride": 8,
      "name": "floatBufferViews",
      "target": 34962
    },
    {
      "buffer": 0,
      "byteLength": 10772328,
      "byteOffset": 17816192,
      "byteStride": 12,
      "name": "floatBufferViews",
      "target": 34962
    },
    {
      "buffer": 0,
      "byteLength": 14363104,
      "byteOffset": 28588520,
      "byteStride": 16,
      "name": "floatBufferViews",
      "target": 34962
    }
  ],
  "buffers": [
    {
      "byteLength": 42951624,
      "uri": "scene.bin"
    }
  ],
  "images": [
    {
      "uri": "textures/material_0_baseColor.jpeg"
    },
    {
      "uri": "textures/material_0_normal.jpeg"
    }
  ],
  "materials": [
    {
      "doubleSided": false,
      "emissiveFactor": [
        0,
        0,
        0
      ],
      "name": "material_0",
      "normalTexture": {
        "index": 1,
        "scale": 1,
        "texCoord": 1
      },
      "pbrMetallicRoughness": {
        "baseColorFactor": [
          1,
          1,
          1,
          1
        ],
        "baseColorTexture": {
          "index": 0,
          "texCoord": 0
        },
        "metallicFactor": 0,
        "roughnessFactor": 1
      }
    }
  ],
  "meshes": [
    {
      "primitives": [
        {
          "attributes": {
            "COLOR_0": 3,
            "NORMAL": 1,
            "POSITION": 0,
            "TANGENT": 2,
            "TEXCOORD_0": 4,
            "TEXCOORD_1": 5
          },
          "indices": 6,
          "material": 0,
          "mode": 4
        }
      ]
    },
    {
      "primitives": [
        {
          "attributes": {
            "COLOR_0": 10,
            "NORMAL": 8,
            "POSITION": 7,
            "TANGENT": 9,
            "TEXCOORD_0": 11,
            "TEXCOORD_1": 12
          },
          "indices": 13,
          "material": 0,
          "mode": 4
        }
      ]
    },
    {
      "primitives": [
        {
          "attributes": {
            "COLOR_0": 17,
            "NORMAL": 15,
            "POSITION": 14,
            "TANGENT": 16,
            "TEXCOORD_0": 18,
            "TEXCOORD_1": 19
          },
          "indices": 20,
          "material": 0,
          "mode": 4
        }
      ]
    },
    {
      "primitives": [
        {
          "attributes": {
            "COLOR_0": 24,
            "NORMAL": 22,
            "POSITION": 21,
            "TANGENT": 23,
            "TEXCOORD_0": 25,
            "TEXCOORD_1": 26
          },
          "indices": 27,
          "material": 0,
          "mode": 4
        }
      ]
    },
    {
      "primitives": [
        {
          "attributes": {
            "COLOR_0": 31,
            "NORMAL": 29,
            "POSITION": 28,
            "TANGENT": 30,
            "TEXCOORD_0": 32,
            "TEXCOORD_1": 33
          },
          "indices": 34,
          "material": 0,
          "mode": 4
        }
      ]
    },
    {
      "primitives": [
        {
          "attributes": {
            "COLOR_0": 38,
            "NORMAL": 36,
            "POSITION": 35,
            "TANGENT": 37,
            "TEXCOORD_0": 39,
            "TEXCOORD_1": 40
          },
          "indices": 41,
          "material": 0,
          "mode": 4
        }
      ]
    },
    {
      "primitives": [
        {
          "attributes": {
            "COLOR_0": 45,
            "NORMAL": 43,
            "POSITION": 42,
            "TANGENT": 44,
            "TEXCOORD_0": 46,
            "TEXCOORD_1": 47
          },
          "indices": 48,
          "material": 0,
          "mode": 4
        }
      ]
    }
  ],
  "nodes": [
    {
      "children": [
        1
      ],
      "name": "RootNode (gltf orientation matrix)",
      "rotation": [
        -0.70710678118654746,
        -0,
        -0,
        0.70710678118654757
      ]
    },
    {
      "children": [
        2
      ],
      "name": "RootNode (model correction matrix)"
    },
    {
      "children": [
        3
      ],
      "name": "root"
    },
    {
      "children": [
        4
      ],
      "matrix": [
        1,
        0,
        0,
        0,
        0,
        2.2204460492503131e-16,
        1,
        0,
        0,
        -1,
        2.2204460492503131e-16,
        0,
        0,
        0,
        0,
        1
      ],
      "name": "GLTF_SceneRootNode"
    },
    {
      "children": [
        5,
        6,
        7,
        8,
        9,
        10,
        11
      ],
      "name": "_0"
    },
    {
      "mesh": 0,
      "name": ""
    },
    {
      "mesh": 1,
      "name": ""
    },
    {
      "mesh": 2,
      "name": ""
    },
    {
      "mesh": 3,
      "name": ""
    },
    {
      "mesh": 4,
      "name": ""
    },
    {
      "mesh": 5,
      "name": ""
    },
    {
      "mesh": 6,
      "name": ""
    }
  ],
  "samplers": [
    {
      "magFilter": 9729,
      "minFilter": 9987,
      "wrapS": 10497,
      "wrapT": 10497
    }
  ],
  "scene": 0,
  "scenes": [
    {
      "name": "OSG_Scene",
      "nodes": [
        0
      ]
    }
  ],
  "textures": [
    {
      "sampler": 0,
      "source": 0
    },
    {
      "sampler": 0,
      "source": 1
    }
  ]
}

